<svg width="245" height="32" viewBox="0 0 245 32" fill="none" xmlns="http://www.w3.org/2000/svg">
<path d="M8.88889 5.33333H0V0.888891H22.2222V5.33333H13.3333V32H8.88889V5.33333ZM31.1241 18.6667V32H26.6797V0.888891H31.1241V14.2222H35.5686V18.6667H31.1241ZM48.9019 32H44.4575V14.2222H48.9019V32ZM44.4575 14.2222H35.5686V9.77778H44.4575V14.2222ZM71.1372 14.2222H57.8038V9.77778H71.1372V14.2222ZM57.8038 23.1111V27.5556H53.3594V14.2222H57.8038V18.6667H71.1372V14.2222H75.5816V23.1111H57.8038ZM75.5816 32H57.8038V27.5556H75.5816V32ZM97.8038 27.5556H93.3594V5.33333H97.8038V27.5556ZM111.137 27.5556V18.6667H102.248V14.2222H115.582V32H97.8038V27.5556H111.137ZM111.137 5.33333H97.8038V0.888891H111.137V5.33333ZM124.484 27.5556H120.039V14.2222H124.484V27.5556ZM137.817 18.6667H133.372V14.2222H137.817V9.77778H142.261V32H137.817V27.5556H133.372V23.1111H137.817V18.6667ZM133.372 32H124.484V27.5556H133.372V32ZM133.372 14.2222H124.484V9.77778H133.372V14.2222ZM160.052 18.6667H155.608V14.2222H160.052V18.6667ZM164.497 14.2222H160.052V9.77778H164.497V14.2222ZM151.163 23.1111V32H146.719V9.77778H151.163V18.6667H155.608V23.1111H151.163ZM173.39 27.5556H168.945V14.2222H173.39V27.5556ZM186.723 18.6667H182.279V14.2222H186.723V0.888891H191.168V32H186.723V27.5556H182.279V23.1111H186.723V18.6667ZM182.279 32H173.39V27.5556H182.279V32ZM182.279 14.2222H173.39V9.77778H182.279V14.2222ZM213.403 14.2222H200.069V9.77778H213.403V14.2222ZM200.069 23.1111V27.5556H195.625V14.2222H200.069V18.6667H213.403V14.2222H217.847V23.1111H200.069ZM217.847 32H200.069V27.5556H217.847V32ZM226.749 18.6667V32H222.305V9.77778H226.749V14.2222H231.194V18.6667H226.749ZM244.527 32H240.082V14.2222H244.527V32ZM240.082 14.2222H231.194V9.77778H240.082V14.2222Z" fill="white"/>
</svg>
